<?xml version="1.0" standalone="no"?>
<!DOCTYPE svg PUBLIC "-//W3C//DTD SVG 20010904//EN"
 "http://www.w3.org/TR/2001/REC-SVG-20010904/DTD/svg10.dtd">
<svg version="1.0" xmlns="http://www.w3.org/2000/svg"
 width="24px" height="24px" viewBox="0 0 512.000000 512.000000"
 preserveAspectRatio="xMidYMid meet">

<g transform="translate(0.000000,512.000000) scale(0.100000,-0.100000)"
fill="#000000" stroke="none">
<path d="M2425 5114 c-16 -2 -70 -9 -120 -15 -385 -47 -759 -233 -1051 -524
-158 -157 -261 -303 -358 -505 -210 -438 -240 -921 -86 -1390 36 -110 113
-275 172 -369 73 -118 1571 -2301 1578 -2301 7 0 1505 2183 1578 2301 194 309
295 729 263 1096 -39 460 -219 853 -535 1168 -286 284 -629 459 -1021 521 -90
14 -364 26 -420 18z m765 -1156 c344 -281 624 -517 624 -523 -1 -12 -173 -225
-181 -225 -2 0 -53 40 -112 90 -60 49 -112 90 -115 90 -3 0 -6 -202 -6 -450
l0 -450 -840 0 -840 0 0 456 0 456 -62 -51 c-35 -28 -88 -71 -119 -95 l-56
-45 -93 115 c-79 98 -91 118 -79 129 33 32 1241 1015 1247 1015 4 0 288 -231
632 -512z"/>
<path d="M2283 3864 l-263 -216 0 -429 0 -429 195 0 195 0 0 200 0 200 150 0
150 0 0 -200 0 -200 195 0 195 0 0 428 0 427 -262 214 c-144 118 -269 215
-277 217 -9 2 -130 -90 -278 -212z"/>
</g>
</svg>
